<?xml version="1.0" ?><!-- Uploaded to: SVG Repo, www.svgrepo.com, Generator: SVG Repo Mixer Tools -->
<svg width="800px" height="800px" viewBox="0 0 512 512" data-name="Camada 1" id="Camada_1" xmlns="http://www.w3.org/2000/svg"><defs><style>.cls-1{fill:#e37f0a;}.cls-2{fill:#e6e6e6;}.cls-3{fill:#f7931e;}</style></defs><title/><polygon class="cls-1" points="310.64 188.35 201.36 188.35 213.78 122.79 298.22 122.79 310.64 188.35"/><rect class="cls-2" height="338.24" rx="23.33" ry="23.33" width="234.16" x="138.92" y="147.76"/><rect class="cls-3" height="265.38" width="234.16" x="138.92" y="180.03"/><polygon class="cls-3" points="310.64 143.6 201.36 143.6 213.78 26 298.22 26 306.54 104.8 307.63 115.11 310.64 143.6"/><rect class="cls-1" height="117.6" transform="translate(9.58 -27.78) rotate(5.56)" width="2.08" x="289.82" y="26"/><rect class="cls-1" height="117.6" transform="translate(9.5 -25.97) rotate(5.56)" width="2.08" x="271.15" y="26"/><rect class="cls-1" height="117.6" transform="translate(9.41 -24.16) rotate(5.56)" width="2.08" x="252.48" y="26"/><rect class="cls-1" height="117.6" transform="translate(9.32 -22.36) rotate(5.56)" width="2.08" x="233.82" y="26"/><polygon class="cls-1" points="307.63 115.11 304.87 143.43 302.8 143.23 306.54 104.8 307.63 115.11"/><rect class="cls-1" height="117.6" transform="translate(9.23 -20.55) rotate(5.56)" width="2.08" x="215.15" y="26"/></svg>